<?xml version="1.0" encoding="UTF-8"?><svg id="a" xmlns="http://www.w3.org/2000/svg" viewBox="0 0 2386.97 512"><defs><style>.e{fill:#946caf;}.e,.f{stroke-width:0px;}.f{fill:#303030;}</style></defs><g id="b"><path class="e" d="m1388.02,346.67v-200.1h93.6c43.5,0,67.2,29.4,67.2,64.5s-24,63.9-67.2,63.9h-51v71.7h-42.6Zm87.9-163.5h-45.3v55.2h45.3c16.8,0,29.4-10.8,29.4-27.6s-12.6-27.6-29.4-27.6Z"/><path class="e" d="m1574.32,346.67v-144.9h38.1v19.8c10.2-12.9,28.2-23.1,46.2-23.1v37.2c-2.7-.6-6.3-.9-10.5-.9-12.6,0-29.4,6.9-35.7,16.2v95.7h-38.1Z"/><path class="e" d="m1769.32,346.67v-15c-9.9,11.7-27,18.6-45.9,18.6-23.1,0-50.4-15.6-50.4-48s27.3-46.2,50.4-46.2c19.2,0,36.3,6,45.9,17.7v-20.1c0-14.7-12.6-24.3-31.8-24.3-15.6,0-30,5.7-42.3,17.1l-14.4-25.5c17.7-15.6,40.5-22.8,63.3-22.8,33,0,63.3,13.2,63.3,54.9v93.6h-38.1Zm0-52.8c-6.3-8.4-18.3-12.6-30.6-12.6-15,0-27.3,8.1-27.3,21.9s12.3,21.3,27.3,21.3c12.3,0,24.3-4.2,30.6-12.6v-18Z"/><path class="e" d="m1845.81,369.17c3.3,1.5,8.4,2.4,12,2.4,9.9,0,16.5-2.7,20.1-10.5l5.4-12.3-58.8-147h40.8l37.8,100.8,37.8-100.8h41.1l-68.1,168.6c-10.8,27.3-30,34.5-54.9,35.1-4.5,0-14.1-.9-18.9-2.1l5.7-34.2Z"/><path class="e" d="m2064.81,198.17c43.2,0,72.6,32.4,72.6,79.8v8.4h-107.7c2.4,18.3,17.1,33.6,41.7,33.6,13.5,0,29.4-5.4,38.7-14.4l16.8,24.6c-14.7,13.5-37.2,20.1-59.7,20.1-44.1,0-77.4-29.7-77.4-76.2,0-42,30.9-75.9,75-75.9Zm-35.7,62.4h71.4c-.9-13.8-10.5-32.1-35.7-32.1-23.7,0-33.9,17.7-35.7,32.1Z"/><path class="e" d="m2165.01,346.67v-144.9h38.1v19.8c10.2-12.9,28.2-23.1,46.2-23.1v37.2c-2.7-.6-6.3-.9-10.5-.9-12.6,0-29.4,6.9-35.7,16.2v95.7h-38.1Z"/><path class="e" d="m2276.9,301.07c10.5,9.9,32.1,19.8,50.1,19.8,16.5,0,24.3-5.7,24.3-14.7,0-10.2-12.6-13.8-29.1-17.1-24.9-4.8-57-10.8-57-45.3,0-24.3,21.3-45.6,59.4-45.6,24.6,0,44.1,8.4,58.2,19.8l-15,26.1c-8.7-9.3-25.2-16.8-42.9-16.8-13.8,0-22.8,5.1-22.8,13.5,0,9,11.4,12.3,27.6,15.6,24.9,4.8,58.2,11.4,58.2,47.4,0,26.7-22.5,46.5-62.7,46.5-25.2,0-49.5-8.4-64.8-22.5l16.5-26.7Z"/></g><g id="c"><polyline class="e" points="971.49 330.75 1016.49 120.15 1200.09 88.35 1232.49 277.95 1157.49 300.15 1136.49 219.75 1076.49 240.75 1086.09 349.35 1174.09 448.35 1052.49 448.35 971.49 330.75"/><polygon class="f" points="1174.09 464.55 1292.49 448.35 1327.29 214.35 1255.29 30.15 1095.69 50.55 1069.84 110.91 1200.09 88.35 1232.49 277.95 1157.49 300.15 1136.49 219.75 1076.49 240.75 1086.09 349.35 1174.09 464.55"/></g><g id="d"><path class="f" d="m159.9,346.67l-12.6-34.5H57.9l-12.6,34.5H-1.5l77.4-200.1h53.4l77.1,200.1h-46.5Zm-57.3-163.2l-33.3,91.8h66.3l-33-91.8Z"/><path class="f" d="m224.1,346.67v-144.9h38.1v19.8c10.2-12.9,28.2-23.1,46.2-23.1v37.2c-2.7-.6-6.3-.9-10.5-.9-12.6,0-29.4,6.9-35.7,16.2v95.7h-38.1Z"/><path class="f" d="m431.69,346.67v-18.3c-11.4,14.1-27.3,21.9-44.7,21.9-36.6,0-64.2-27.6-64.2-75.9s27.3-76.2,64.2-76.2c17.1,0,33.3,7.5,44.7,22.2v-73.8h38.4v200.1h-38.4Zm0-98.1c-6.6-9.6-20.1-16.5-33-16.5-21.6,0-36.6,17.1-36.6,42.3s15,42,36.6,42c12.9,0,26.4-6.9,33-16.5v-51.3Z"/><path class="f" d="m573.59,198.17c43.2,0,72.6,32.4,72.6,79.8v8.4h-107.7c2.4,18.3,17.1,33.6,41.7,33.6,13.5,0,29.4-5.4,38.7-14.4l16.8,24.6c-14.7,13.5-37.2,20.1-59.7,20.1-44.1,0-77.4-29.7-77.4-76.2,0-42,30.9-75.9,75-75.9Zm-35.7,62.4h71.4c-.9-13.8-10.5-32.1-35.7-32.1-23.7,0-33.9,17.7-35.7,32.1Z"/><path class="f" d="m771.59,346.67v-87.6c0-20.1-10.5-27-26.7-27-15,0-26.7,8.4-33,17.1v97.5h-38.1v-144.9h38.1v18.9c9.3-11.1,27-22.5,50.7-22.5,31.8,0,47.1,18,47.1,46.2v102.3h-38.1Z"/><path class="f" d="m854.99,310.67v-75.6h-24v-33.3h24v-39.6h38.4v39.6h29.4v33.3h-29.4v65.4c0,9,4.8,15.9,13.2,15.9,5.7,0,11.1-2.1,13.2-4.2l8.1,28.8c-5.7,5.1-15.9,9.3-31.8,9.3-26.7,0-41.1-13.8-41.1-39.6Z"/></g></svg>